<?xml version="1.0" standalone="no"?>
<!DOCTYPE svg PUBLIC "-//W3C//DTD SVG 20010904//EN"
 "http://www.w3.org/TR/2001/REC-SVG-20010904/DTD/svg10.dtd">
<svg version="1.0" xmlns="http://www.w3.org/2000/svg"
 width="512.000000pt" height="512.000000pt" viewBox="0 0 512.000000 512.000000"
 preserveAspectRatio="xMidYMid meet">

<g transform="translate(0.000000,512.000000) scale(0.100000,-0.100000)"
fill="#000000" stroke="none">
<path d="M3990 5108 c-25 -8 -106 -81 -281 -255 l-246 -245 -67 21 c-259 80
-527 20 -720 -160 -208 -194 -286 -481 -202 -745 l26 -79 -1139 -1140 c-1213
-1215 -1201 -1202 -1281 -1378 -114 -252 -103 -507 31 -734 44 -73 157 -194
235 -249 285 -203 646 -186 968 48 43 31 515 495 1201 1179 l1130 1129 80 -27
c67 -22 99 -26 200 -27 146 -1 199 11 330 74 203 98 341 273 390 493 23 106
17 272 -16 375 l-22 73 236 237 c244 245 276 287 277 361 0 93 5 88 -469 564
-258 260 -462 457 -485 469 -46 24 -128 31 -176 16z m350 -773 l265 -265 -133
-132 -132 -133 -270 270 -270 270 127 127 c70 71 132 128 138 128 6 0 129
-119 275 -265z m-1069 -111 c52 -15 73 -34 486 -447 486 -484 478 -474 477
-607 -1 -118 -54 -209 -155 -265 -49 -27 -63 -30 -144 -30 -80 0 -96 3 -141
28 -36 20 -179 157 -471 450 -467 468 -453 451 -453 586 0 207 195 345 401
285z m-238 -1192 l267 -267 -228 -228 -228 -227 -59 21 c-45 16 -91 23 -188
27 l-128 4 -52 48 -52 48 -6 128 c-4 96 -11 147 -29 198 l-22 68 223 224 c123
123 226 224 229 224 3 0 125 -120 273 -268z m-1041 -764 c40 -76 148 -192 229
-246 34 -23 94 -51 133 -63 39 -12 79 -24 89 -28 14 -5 -136 -159 -685 -707
l-703 -702 -89 -43 c-86 -42 -93 -44 -180 -44 -114 0 -165 22 -252 111 -132
133 -140 299 -22 484 30 47 233 257 727 753 l686 687 17 -70 c10 -39 32 -98
50 -132z"/>
</g>
</svg>
