<?xml version="1.0" standalone="no"?>
<!DOCTYPE svg PUBLIC "-//W3C//DTD SVG 20010904//EN"
 "http://www.w3.org/TR/2001/REC-SVG-20010904/DTD/svg10.dtd">
<svg version="1.0" xmlns="http://www.w3.org/2000/svg"
 width="512.000000pt" height="512.000000pt" viewBox="0 0 512.000000 512.000000"
 preserveAspectRatio="xMidYMid meet">

<g transform="translate(0.000000,512.000000) scale(0.100000,-0.100000)"
fill="#000000" stroke="none">
<path d="M2458 5106 c-154 -28 -324 -99 -445 -187 -91 -66 -213 -197 -272
-293 -96 -155 -148 -323 -158 -516 -6 -128 8 -236 46 -346 l29 -82 -37 13
c-20 7 -348 130 -729 274 -381 145 -708 265 -727 268 -51 8 -121 -29 -145 -78
-20 -38 -20 -68 -20 -1725 l0 -1688 21 -44 c18 -36 32 -49 73 -68 28 -12 416
-161 861 -329 664 -251 817 -306 846 -302 20 3 384 136 808 296 l771 291 757
-287 c417 -157 779 -291 804 -296 63 -14 131 17 159 74 20 38 20 63 18 1737
l-3 1698 -25 37 c-32 46 0 33 -772 323 l-637 239 -7 55 c-18 152 -61 289 -126
405 -187 331 -511 529 -888 540 -78 3 -154 -1 -202 -9z m357 -309 c230 -64
420 -231 508 -447 44 -108 51 -149 51 -285 0 -96 -5 -145 -18 -187 -38 -124
-133 -284 -536 -905 -100 -153 -184 -279 -188 -281 -4 -1 -117 168 -252 375
-471 728 -495 777 -495 998 1 135 11 190 57 300 87 210 303 390 520 434 29 6
62 13 73 15 37 9 229 -3 280 -17z m-1833 -1182 l658 -249 0 -1499 c0 -1195 -3
-1498 -12 -1495 -7 3 -309 117 -670 253 l-658 248 0 1500 c0 1195 3 1498 13
1495 6 -3 308 -117 669 -253z m3701 -197 l137 -51 0 -1500 c0 -1195 -3 -1498
-12 -1495 -7 3 -298 112 -645 243 l-633 239 0 1338 0 1339 31 62 c26 50 59
131 84 204 2 7 166 -50 452 -158 246 -93 510 -192 586 -221z m-2459 -663 c153
-236 290 -442 306 -457 55 -51 134 -54 193 -8 13 11 103 140 198 287 95 148
204 315 241 372 l68 105 0 -1100 0 -1100 -632 -239 c-348 -131 -639 -240 -645
-243 -10 -3 -13 283 -13 1409 0 777 2 1410 4 1408 2 -2 128 -197 280 -434z"/>
<path d="M2541 4509 c-227 -44 -391 -278 -353 -505 32 -196 180 -344 376 -376
289 -48 556 219 508 508 -42 255 -281 422 -531 373z m159 -309 c45 -23 80 -80
80 -130 0 -17 -9 -49 -20 -70 -23 -45 -80 -80 -130 -80 -50 0 -107 35 -130 80
-25 50 -25 90 0 140 37 73 124 99 200 60z"/>
</g>
</svg>
