<?xml version="1.0" standalone="no"?>
<!DOCTYPE svg PUBLIC "-//W3C//DTD SVG 20010904//EN"
 "http://www.w3.org/TR/2001/REC-SVG-20010904/DTD/svg10.dtd">
<svg version="1.0" xmlns="http://www.w3.org/2000/svg"
 width="512.000000pt" height="512.000000pt" viewBox="0 0 512.000000 512.000000"
 preserveAspectRatio="xMidYMid meet">

<g transform="translate(0.000000,512.000000) scale(0.100000,-0.100000)"
fill="#000000" stroke="none">
<path d="M2321 5109 c-323 -29 -669 -131 -961 -285 -686 -361 -1174 -1026
-1315 -1788 -104 -567 -26 -1115 230 -1621 137 -272 292 -483 508 -691 204
-198 402 -337 652 -459 188 -92 308 -136 499 -185 491 -124 990 -102 1476 65
142 49 421 188 550 273 304 202 577 482 774 792 64 100 186 351 232 475 47
129 107 369 129 515 62 428 3 914 -159 1318 -162 402 -439 777 -771 1042 -196
156 -484 318 -720 405 -338 125 -749 177 -1124 144z m519 -435 c774 -100 1429
-614 1710 -1342 40 -102 101 -321 114 -408 l6 -41 -73 -41 c-191 -109 -445
-195 -702 -236 l-85 -13 -11 41 c-107 405 -378 718 -754 871 -206 84 -457 114
-670 80 -523 -82 -919 -439 -1054 -951 l-11 -41 -88 14 c-251 40 -510 127
-700 235 -83 48 -80 28 -37 213 100 430 340 828 670 1113 313 270 708 450
1100 502 50 6 97 13 105 15 52 10 375 3 480 -11z m-82 -1524 c164 -39 301
-119 418 -243 364 -382 294 -999 -146 -1292 -285 -190 -655 -189 -941 1 -80
53 -211 189 -258 267 -85 143 -116 261 -116 442 1 154 17 234 74 360 102 224
322 404 568 464 110 27 290 28 401 1z m-2223 -789 c183 -79 506 -166 693 -187
53 -6 63 -10 67 -28 42 -207 64 -276 133 -410 165 -322 464 -557 830 -653 130
-34 372 -43 508 -19 401 69 745 319 926 672 69 134 91 203 133 410 4 18 14 22
67 28 197 22 503 105 704 192 47 20 86 35 88 33 7 -9 -17 -184 -40 -289 -201
-905 -948 -1575 -1863 -1671 -143 -15 -443 -6 -566 16 -464 84 -835 276 -1160
600 -296 295 -488 644 -579 1055 -14 63 -28 144 -31 180 -3 36 -8 75 -11 88
-2 12 -1 22 3 22 5 0 49 -18 98 -39z"/>
<path d="M2399 2985 c-194 -49 -356 -180 -445 -360 -58 -117 -78 -211 -71
-335 10 -184 71 -316 206 -450 138 -137 276 -194 471 -194 198 0 333 57 476
199 76 75 98 105 132 175 56 117 76 217 69 340 -15 278 -193 513 -459 607 -61
22 -94 27 -198 29 -84 2 -143 -1 -181 -11z m285 -443 c80 -44 126 -121 126
-213 0 -72 -17 -122 -59 -170 -124 -145 -358 -104 -426 75 -26 68 -18 160 21
222 31 51 111 109 163 117 50 9 126 -5 175 -31z"/>
</g>
</svg>
